solid OpenSCAD_Model
  facet normal -1 0 0
    outer loop
      vertex 2.45 3.59844 2.64035
      vertex 2.45 137.55 4.45
      vertex 2.45 135.55 2.45
    endloop
  endfacet
  facet normal 0 0.33874 -0.94088
    outer loop
      vertex 2.45 136.286 2.59045
      vertex 4.45 136.286 2.59045
      vertex 2.45 136.168 2.54789
    endloop
  endfacet
  facet normal -1 0 0
    outer loop
      vertex 2.45 3.59844 2.64035
      vertex 2.45 135.55 2.45
      vertex 2.45 4.45 2.45
    endloop
  endfacet
  facet normal 0 1 0
    outer loop
      vertex 2.45 137.55 4.45
      vertex 4.45 137.55 4.45
      vertex 3.45 137.55 4.45
    endloop
  endfacet
  facet normal -1 0 0
    outer loop
      vertex 2.45 137.55 4.45
      vertex 2.45 4.45 57.55
      vertex 2.45 136.286 57.4096
    endloop
  endfacet
  facet normal -1 -0 0
    outer loop
      vertex 2.45 137.55 4.45
      vertex 2.45 3.59844 2.64035
      vertex 2.45 4.45 57.55
    endloop
  endfacet
  facet normal -1 0 0
    outer loop
      vertex 2.45 137.55 55.55
      vertex 2.45 137.452 56.168
      vertex 2.45 137.546 55.6756
    endloop
  endfacet
  facet normal 1 0 -0
    outer loop
      vertex 4.45 136.919 2.99206
      vertex 4.45 137.487 56.0474
      vertex 4.45 2.45 55.55
    endloop
  endfacet
  facet normal -1 0 0
    outer loop
      vertex 2.45 137.55 55.55
      vertex 2.45 136.286 57.4096
      vertex 2.45 137.168 56.7256
    endloop
  endfacet
  facet normal 1 0 0
    outer loop
      vertex 4.45 4.45 2.45
      vertex 4.45 2.45 55.55
      vertex 4.45 2.45395 4.32442
    endloop
  endfacet
  facet normal 0 0 1
    outer loop
      vertex 2.45 4.45 57.55
      vertex 4.45 135.55 57.55
      vertex 2.45 135.55 57.55
    endloop
  endfacet
  facet normal -1 0 0
    outer loop
      vertex 2.45 137.55 4.45
      vertex 2.45 136.286 57.4096
      vertex 2.45 137.55 55.55
    endloop
  endfacet
  facet normal 1 0 0
    outer loop
      vertex 4.45 136.919 2.99206
      vertex 4.45 2.45 55.55
      vertex 4.45 4.45 2.45
    endloop
  endfacet
  facet normal -1 0 0
    outer loop
      vertex 2.45 3.59844 2.64035
      vertex 2.45 3.83197 2.54789
      vertex 2.45 3.71375 2.59045
    endloop
  endfacet
  facet normal -1 0 0
    outer loop
      vertex 2.45 135.55 2.45
      vertex 2.45 136.919 2.99206
      vertex 2.45 136.286 2.59045
    endloop
  endfacet
  facet normal -1 0 0
    outer loop
      vertex 2.45 135.55 2.45
      vertex 2.45 137.55 4.45
      vertex 2.45 136.919 2.99206
    endloop
  endfacet
  facet normal 1 0 0
    outer loop
      vertex 4.45 137.487 56.0474
      vertex 4.45 136.919 2.99206
      vertex 4.45 137.55 4.45
    endloop
  endfacet
  facet normal 1 0 0
    outer loop
      vertex 4.45 137.55 4.45
      vertex 4.45 136.919 2.99206
      vertex 4.45 137.515 4.07524
    endloop
  endfacet
  facet normal -1 0 0
    outer loop
      vertex 2.45 4.45 57.55
      vertex 2.45 2.45 55.55
      vertex 2.45 2.99206 56.9191
    endloop
  endfacet
  facet normal -1 0 0
    outer loop
      vertex 2.45 2.59045 56.2862
      vertex 2.45 2.48543 55.9248
      vertex 2.45 2.51283 56.0474
    endloop
  endfacet
  facet normal 1 0 3.17337e-007
    outer loop
      vertex 4.45 137.487 56.0474
      vertex 4.45 4.45 57.55
      vertex 4.45 2.51283 56.0474
    endloop
  endfacet
  facet normal -1 0 0
    outer loop
      vertex 2.45 4.45 57.55
      vertex 2.45 3.59844 2.64035
      vertex 2.45 2.45 55.55
    endloop
  endfacet
  facet normal 1 0 0
    outer loop
      vertex 4.45 137.487 56.0474
      vertex 4.45 137.55 4.45
      vertex 4.45 137.55 55.55
    endloop
  endfacet
  facet normal 0 1 0
    outer loop
      vertex 4.45 137.55 4.45
      vertex 2.45 137.55 4.45
      vertex 2.45 137.55 55.55
    endloop
  endfacet
  facet normal 0 0 -1
    outer loop
      vertex 2.45 135.55 2.45
      vertex 4.45 4.45 2.45
      vertex 2.45 4.45 2.45
    endloop
  endfacet
  facet normal -1 0 0
    outer loop
      vertex 2.45 3.59844 2.64035
      vertex 2.45 4.45 2.45
      vertex 2.45 3.95262 2.51283
    endloop
  endfacet
  facet normal 1 0 0
    outer loop
      vertex 4.45 136.919 2.99206
      vertex 4.45 4.45 2.45
      vertex 4.45 135.55 2.45
    endloop
  endfacet
  facet normal 0 0 -1
    outer loop
      vertex 4.45 4.45 2.45
      vertex 2.45 135.55 2.45
      vertex 4.45 135.55 2.45
    endloop
  endfacet
  facet normal -0 -0.999507 -0.0314087
    outer loop
      vertex 4.45 2.45395 4.32442
      vertex 2.45 2.45 4.45
      vertex 2.45 2.45395 4.32442
    endloop
  endfacet
  facet normal 1 0 0
    outer loop
      vertex 4.45 2.45395 4.32442
      vertex 4.45 2.45 55.55
      vertex 4.45 2.45 4.45
    endloop
  endfacet
  facet normal 0 0.707107 -0.707107
    outer loop
      vertex 4.45 136.919 2.99206
      vertex 2.45 136.919 2.99206
      vertex 2.45 137.008 3.08091
    endloop
  endfacet
  facet normal -1 0 0
    outer loop
      vertex 2.45 136.919 2.99206
      vertex 2.45 137.55 4.45
      vertex 2.45 137.41 3.71375
    endloop
  endfacet
  facet normal 1 0 0
    outer loop
      vertex 4.45 136.919 2.99206
      vertex 4.45 135.55 2.45
      vertex 4.45 136.286 2.59045
    endloop
  endfacet
  facet normal -1 0 0
    outer loop
      vertex 2.45 135.55 2.45
      vertex 2.45 136.286 2.59045
      vertex 2.45 135.925 2.48543
    endloop
  endfacet
  facet normal 0 0 1
    outer loop
      vertex 2.45 4.45 57.55
      vertex 4.45 4.45 57.55
      vertex 4.45 135.55 57.55
    endloop
  endfacet
  facet normal 1 -0 3.17337e-007
    outer loop
      vertex 4.45 4.45 57.55
      vertex 4.45 137.487 56.0474
      vertex 4.45 135.55 57.55
    endloop
  endfacet
  facet normal -1 0 0
    outer loop
      vertex 2.45 4.45 57.55
      vertex 2.45 2.99206 56.9191
      vertex 2.45 3.71375 57.4096
    endloop
  endfacet
  facet normal 1 -9.14394e-007 1.03719e-006
    outer loop
      vertex 4.45 3.08091 57.0079
      vertex 4.45 2.51283 56.0474
      vertex 4.45 3.17515 57.091
    endloop
  endfacet
  facet normal -1 0 0
    outer loop
      vertex 2.45 137.452 56.168
      vertex 2.45 137.303 56.5135
      vertex 2.45 137.41 56.2862
    endloop
  endfacet
  facet normal 1 3.20046e-007 6.28132e-007
    outer loop
      vertex 4.45 137.487 56.0474
      vertex 4.45 136.514 57.3026
      vertex 4.45 136.402 57.3597
    endloop
  endfacet
  facet normal 0 1 -0
    outer loop
      vertex 4.45 137.55 4.45
      vertex 2.45 137.55 55.55
      vertex 4.45 137.55 55.55
    endloop
  endfacet
  facet normal 1 0 0
    outer loop
      vertex 4.45 137.487 56.0474
      vertex 4.45 137.55 55.55
      vertex 4.45 137.534 55.8007
    endloop
  endfacet
  facet normal 1 0 0
    outer loop
      vertex 4.45 4.45 2.45
      vertex 4.45 3.83197 2.54789
      vertex 4.45 4.07524 2.48543
    endloop
  endfacet
  facet normal -1 0 0
    outer loop
      vertex 2.45 3.59844 2.64035
      vertex 2.45 3.95262 2.51283
      vertex 2.45 3.83197 2.54789
    endloop
  endfacet
  facet normal 1 0 0
    outer loop
      vertex 4.45 4.45 2.45
      vertex 4.45 2.45395 4.32442
      vertex 4.45 3.08091 2.99206
    endloop
  endfacet
  facet normal 0 -0.397152 -0.917753
    outer loop
      vertex 2.45 3.59844 2.64035
      vertex 4.45 3.71375 2.59045
      vertex 4.45 3.59844 2.64035
    endloop
  endfacet
  facet normal -0 -1 -0
    outer loop
      vertex 4.45 2.45 55.55
      vertex 2.45 2.45 55.55
      vertex 4.45 2.45 4.45
    endloop
  endfacet
  facet normal -1 0 0
    outer loop
      vertex 2.45 2.45 55.55
      vertex 2.45 2.69739 3.48649
      vertex 2.45 2.45 4.45
    endloop
  endfacet
  facet normal 0 0.707107 -0.707107
    outer loop
      vertex 4.45 136.919 2.99206
      vertex 2.45 137.008 3.08091
      vertex 4.45 137.008 3.08091
    endloop
  endfacet
  facet normal 0 0.999506 -0.0314165
    outer loop
      vertex 2.45 137.55 4.45
      vertex 4.45 137.546 4.32442
      vertex 2.45 137.546 4.32442
    endloop
  endfacet
  facet normal -1 0 0
    outer loop
      vertex 2.45 136.919 2.99206
      vertex 2.45 137.41 3.71375
      vertex 2.45 137.168 3.27443
    endloop
  endfacet
  facet normal 1 0 0
    outer loop
      vertex 4.45 137.452 3.83197
      vertex 4.45 137.303 3.48649
      vertex 4.45 137.41 3.71375
    endloop
  endfacet
  facet normal -1 0 0
    outer loop
      vertex 2.45 136.286 2.59045
      vertex 2.45 136.919 2.99206
      vertex 2.45 136.622 2.76134
    endloop
  endfacet
  facet normal 0 0.509044 -0.860741
    outer loop
      vertex 2.45 136.514 2.69739
      vertex 2.45 136.622 2.76134
      vertex 4.45 136.622 2.76134
    endloop
  endfacet
  facet normal -1 0 0
    outer loop
      vertex 2.45 136.286 2.59045
      vertex 2.45 136.622 2.76134
      vertex 2.45 136.514 2.69739
    endloop
  endfacet
  facet normal 1 0 0
    outer loop
      vertex 4.45 136.919 2.99206
      vertex 4.45 136.286 2.59045
      vertex 4.45 136.622 2.76134
    endloop
  endfacet
  facet normal 0 0.156436 -0.987688
    outer loop
      vertex 2.45 135.925 2.48543
      vertex 4.45 135.925 2.48543
      vertex 2.45 135.801 2.46577
    endloop
  endfacet
  facet normal -1 0 0
    outer loop
      vertex 2.45 135.55 2.45
      vertex 2.45 135.925 2.48543
      vertex 2.45 135.801 2.46577
    endloop
  endfacet
  facet normal -1 0 0
    outer loop
      vertex 2.45 136.286 57.4096
      vertex 2.45 135.55 57.55
      vertex 2.45 135.925 57.5146
    endloop
  endfacet
  facet normal -1 0 0
    outer loop
      vertex 2.45 136.286 57.4096
      vertex 2.45 4.45 57.55
      vertex 2.45 135.55 57.55
    endloop
  endfacet
  facet normal 1 -1.8514e-005 8.01183e-006
    outer loop
      vertex 4.45 2.59045 56.2862
      vertex 4.45 2.51283 56.0474
      vertex 4.45 2.64035 56.4016
    endloop
  endfacet
  facet normal 1 -6.19189e-008 3.90936e-007
    outer loop
      vertex 4.45 4.19933 57.5342
      vertex 4.45 4.07524 57.5146
      vertex 4.45 2.51283 56.0474
    endloop
  endfacet
  facet normal -1 0 0
    outer loop
      vertex 2.45 4.45 57.55
      vertex 2.45 3.71375 57.4096
      vertex 2.45 4.07524 57.5146
    endloop
  endfacet
  facet normal -1 0 0
    outer loop
      vertex 2.45 3.71375 57.4096
      vertex 2.45 3.27443 57.168
      vertex 2.45 3.48649 57.3026
    endloop
  endfacet
  facet normal -1 0 0
    outer loop
      vertex 2.45 137.55 55.55
      vertex 2.45 137.168 56.7256
      vertex 2.45 137.452 56.168
    endloop
  endfacet
  facet normal 0 0.960294 0.278991
    outer loop
      vertex 4.45 137.487 56.0474
      vertex 2.45 137.452 56.168
      vertex 4.45 137.452 56.168
    endloop
  endfacet
  facet normal 1 5.37337e-007 7.90673e-007
    outer loop
      vertex 4.45 137.487 56.0474
      vertex 4.45 136.726 57.168
      vertex 4.45 136.622 57.2387
    endloop
  endfacet
  facet normal -1 0 0
    outer loop
      vertex 2.45 136.726 57.168
      vertex 2.45 136.514 57.3026
      vertex 2.45 136.622 57.2387
    endloop
  endfacet
  facet normal 0 0.975918 0.21814
    outer loop
      vertex 4.45 137.487 56.0474
      vertex 4.45 137.515 55.9248
      vertex 2.45 137.487 56.0474
    endloop
  endfacet
  facet normal 1 0 0
    outer loop
      vertex 4.45 137.487 56.0474
      vertex 4.45 137.534 55.8007
      vertex 4.45 137.515 55.9248
    endloop
  endfacet
  facet normal -1 0 0
    outer loop
      vertex 2.45 3.95262 2.51283
      vertex 2.45 4.45 2.45
      vertex 2.45 4.19933 2.46577
    endloop
  endfacet
  facet normal 0 -0.156436 -0.987688
    outer loop
      vertex 4.45 4.07524 2.48543
      vertex 2.45 4.19933 2.46577
      vertex 4.45 4.19933 2.46577
    endloop
  endfacet
  facet normal 0 -0.278991 -0.960294
    outer loop
      vertex 2.45 3.83197 2.54789
      vertex 2.45 3.95262 2.51283
      vertex 4.45 3.83197 2.54789
    endloop
  endfacet
  facet normal 0 -0.21814 -0.975918
    outer loop
      vertex 2.45 3.95262 2.51283
      vertex 4.45 4.07524 2.48543
      vertex 4.45 3.95262 2.51283
    endloop
  endfacet
  facet normal -1 0 0
    outer loop
      vertex 2.45 2.45 4.45
      vertex 2.45 2.69739 3.48649
      vertex 2.45 2.59045 3.71375
    endloop
  endfacet
  facet normal -1 0 0
    outer loop
      vertex 2.45 2.45 55.55
      vertex 2.45 3.59844 2.64035
      vertex 2.45 2.69739 3.48649
    endloop
  endfacet
  facet normal 1 0 0
    outer loop
      vertex 4.45 137.55 4.45
      vertex 4.45 137.515 4.07524
      vertex 4.45 137.534 4.19933
    endloop
  endfacet
  facet normal 0 0.987688 -0.156436
    outer loop
      vertex 4.45 137.534 4.19933
      vertex 4.45 137.515 4.07524
      vertex 2.45 137.515 4.07524
    endloop
  endfacet
  facet normal -1 0 0
    outer loop
      vertex 2.45 137.41 3.71375
      vertex 2.45 137.515 4.07524
      vertex 2.45 137.487 3.95262
    endloop
  endfacet
  facet normal 1 0 0
    outer loop
      vertex 4.45 137.515 4.07524
      vertex 4.45 136.919 2.99206
      vertex 4.45 137.303 3.48649
    endloop
  endfacet
  facet normal 0 0.975918 -0.21814
    outer loop
      vertex 2.45 137.515 4.07524
      vertex 4.45 137.515 4.07524
      vertex 2.45 137.487 3.95262
    endloop
  endfacet
  facet normal -1 0 0
    outer loop
      vertex 2.45 137.41 3.71375
      vertex 2.45 137.55 4.45
      vertex 2.45 137.515 4.07524
    endloop
  endfacet
  facet normal -1 0 0
    outer loop
      vertex 2.45 136.919 2.99206
      vertex 2.45 137.168 3.27443
      vertex 2.45 137.008 3.08091
    endloop
  endfacet
  facet normal 0 0.790153 -0.61291
    outer loop
      vertex 2.45 137.168 3.27443
      vertex 4.45 137.168 3.27443
      vertex 2.45 137.091 3.17515
    endloop
  endfacet
  facet normal -1 0 0
    outer loop
      vertex 2.45 136.622 2.76134
      vertex 2.45 136.919 2.99206
      vertex 2.45 136.726 2.83197
    endloop
  endfacet
  facet normal 0 0.562081 -0.827082
    outer loop
      vertex 4.45 136.622 2.76134
      vertex 2.45 136.726 2.83197
      vertex 4.45 136.726 2.83197
    endloop
  endfacet
  facet normal 0 0.397152 -0.917753
    outer loop
      vertex 4.45 136.286 2.59045
      vertex 2.45 136.402 2.64035
      vertex 4.45 136.402 2.64035
    endloop
  endfacet
  facet normal -1 0 0
    outer loop
      vertex 2.45 136.286 2.59045
      vertex 2.45 136.514 2.69739
      vertex 2.45 136.402 2.64035
    endloop
  endfacet
  facet normal 0 0.562081 -0.827082
    outer loop
      vertex 2.45 136.622 2.76134
      vertex 2.45 136.726 2.83197
      vertex 4.45 136.622 2.76134
    endloop
  endfacet
  facet normal 1 0 0
    outer loop
      vertex 4.45 136.919 2.99206
      vertex 4.45 136.622 2.76134
      vertex 4.45 136.726 2.83197
    endloop
  endfacet
  facet normal 0 0.21814 -0.975918
    outer loop
      vertex 2.45 135.925 2.48543
      vertex 2.45 136.047 2.51283
      vertex 4.45 135.925 2.48543
    endloop
  endfacet
  facet normal -1 0 0
    outer loop
      vertex 2.45 135.925 2.48543
      vertex 2.45 136.286 2.59045
      vertex 2.45 136.047 2.51283
    endloop
  endfacet
  facet normal 1 0 0
    outer loop
      vertex 4.45 136.286 2.59045
      vertex 4.45 135.925 2.48543
      vertex 4.45 136.047 2.51283
    endloop
  endfacet
  facet normal 1 0 0
    outer loop
      vertex 4.45 136.286 2.59045
      vertex 4.45 135.55 2.45
      vertex 4.45 135.925 2.48543
    endloop
  endfacet
  facet normal 0 0.0941056 -0.995562
    outer loop
      vertex 2.45 135.801 2.46577
      vertex 4.45 135.801 2.46577
      vertex 2.45 135.676 2.45395
    endloop
  endfacet
  facet normal -1 0 0
    outer loop
      vertex 2.45 135.55 2.45
      vertex 2.45 135.801 2.46577
      vertex 2.45 135.676 2.45395
    endloop
  endfacet
  facet normal 1 1.35619e-007 4.66805e-007
    outer loop
      vertex 4.45 137.487 56.0474
      vertex 4.45 136.168 57.4521
      vertex 4.45 136.047 57.4872
    endloop
  endfacet
  facet normal -1 0 0
    outer loop
      vertex 2.45 136.286 57.4096
      vertex 2.45 135.925 57.5146
      vertex 2.45 136.047 57.4872
    endloop
  endfacet
  facet normal -1 0 0
    outer loop
      vertex 2.45 2.99206 56.9191
      vertex 2.45 2.45 55.55
      vertex 2.45 2.59045 56.2862
    endloop
  endfacet
  facet normal -1 0 0
    outer loop
      vertex 2.45 4.45 57.55
      vertex 2.45 4.19933 57.5342
      vertex 2.45 4.32442 57.5461
    endloop
  endfacet
  facet normal 0 -0.397152 0.917753
    outer loop
      vertex 4.45 3.71375 57.4096
      vertex 2.45 3.71375 57.4096
      vertex 4.45 3.59844 57.3597
    endloop
  endfacet
  facet normal 0 -0.21814 0.975918
    outer loop
      vertex 4.45 4.07524 57.5146
      vertex 2.45 4.07524 57.5146
      vertex 4.45 3.95262 57.4872
    endloop
  endfacet
  facet normal -1 0 0
    outer loop
      vertex 2.45 4.45 57.55
      vertex 2.45 4.07524 57.5146
      vertex 2.45 4.19933 57.5342
    endloop
  endfacet
  facet normal 0 -0.156436 0.987688
    outer loop
      vertex 2.45 4.07524 57.5146
      vertex 4.45 4.07524 57.5146
      vertex 4.45 4.19933 57.5342
    endloop
  endfacet
  facet normal -1 0 0
    outer loop
      vertex 2.45 137.452 56.168
      vertex 2.45 137.168 56.7256
      vertex 2.45 137.303 56.5135
    endloop
  endfacet
  facet normal -0 0.827082 0.562081
    outer loop
      vertex 2.45 137.168 56.7256
      vertex 4.45 137.168 56.7256
      vertex 2.45 137.239 56.6217
    endloop
  endfacet
  facet normal 1 2.30434e-006 1.78744e-006
    outer loop
      vertex 4.45 137.487 56.0474
      vertex 4.45 137.168 56.7256
      vertex 4.45 137.091 56.8248
    endloop
  endfacet
  facet normal 0 0.790153 0.61291
    outer loop
      vertex 4.45 137.168 56.7256
      vertex 2.45 137.168 56.7256
      vertex 4.45 137.091 56.8248
    endloop
  endfacet
  facet normal -1 0 0
    outer loop
      vertex 2.45 137.168 56.7256
      vertex 2.45 136.726 57.168
      vertex 2.45 136.919 57.0079
    endloop
  endfacet
  facet normal -1 0 0
    outer loop
      vertex 2.45 137.168 56.7256
      vertex 2.45 136.286 57.4096
      vertex 2.45 136.726 57.168
    endloop
  endfacet
  facet normal 0 0.278991 0.960294
    outer loop
      vertex 4.45 136.168 57.4521
      vertex 2.45 136.047 57.4872
      vertex 4.45 136.047 57.4872
    endloop
  endfacet
  facet normal -0 0.21814 0.975918
    outer loop
      vertex 2.45 136.047 57.4872
      vertex 2.45 135.925 57.5146
      vertex 4.45 136.047 57.4872
    endloop
  endfacet
  facet normal 0 0.999506 0.0314165
    outer loop
      vertex 4.45 137.55 55.55
      vertex 2.45 137.546 55.6756
      vertex 4.45 137.546 55.6756
    endloop
  endfacet
  facet normal -2.99609e-008 0.999506 0.0314163
    outer loop
      vertex 2.45 137.55 55.55
      vertex 2.45 137.546 55.6756
      vertex 3.45 137.55 55.55
    endloop
  endfacet
  facet normal 0 0.987688 0.156436
    outer loop
      vertex 4.45 137.515 55.9248
      vertex 4.45 137.534 55.8007
      vertex 2.45 137.534 55.8007
    endloop
  endfacet
  facet normal 0 0.995562 0.0941056
    outer loop
      vertex 4.45 137.534 55.8007
      vertex 2.45 137.546 55.6756
      vertex 2.45 137.534 55.8007
    endloop
  endfacet
  facet normal -1 0 0
    outer loop
      vertex 2.45 3.95262 2.51283
      vertex 2.45 4.19933 2.46577
      vertex 2.45 4.07524 2.48543
    endloop
  endfacet
  facet normal 0 -0.21814 -0.975918
    outer loop
      vertex 2.45 3.95262 2.51283
      vertex 2.45 4.07524 2.48543
      vertex 4.45 4.07524 2.48543
    endloop
  endfacet
  facet normal -1 0 0
    outer loop
      vertex 2.45 4.19933 2.46577
      vertex 2.45 4.45 2.45
      vertex 2.45 4.32442 2.45395
    endloop
  endfacet
  facet normal 0 -0.0314087 -0.999507
    outer loop
      vertex 2.45 4.45 2.45
      vertex 4.45 4.45 2.45
      vertex 2.45 4.32442 2.45395
    endloop
  endfacet
  facet normal 1 0 0
    outer loop
      vertex 4.45 4.45 2.45
      vertex 4.45 3.08091 2.99206
      vertex 4.45 3.83197 2.54789
    endloop
  endfacet
  facet normal 0 -0.33874 -0.94088
    outer loop
      vertex 2.45 3.83197 2.54789
      vertex 4.45 3.83197 2.54789
      vertex 4.45 3.71375 2.59045
    endloop
  endfacet
  facet normal 1 0 0
    outer loop
      vertex 4.45 3.08091 2.99206
      vertex 4.45 2.64035 3.59844
      vertex 4.45 2.83197 3.27443
    endloop
  endfacet
  facet normal -1 0 0
    outer loop
      vertex 2.45 2.69739 3.48649
      vertex 2.45 3.59844 2.64035
      vertex 2.45 3.08091 2.99206
    endloop
  endfacet
  facet normal 0 -0.827082 -0.562081
    outer loop
      vertex 2.45 2.83197 3.27443
      vertex 4.45 2.83197 3.27443
      vertex 2.45 2.76134 3.37835
    endloop
  endfacet
  facet normal 1 0 0
    outer loop
      vertex 4.45 3.08091 2.99206
      vertex 4.45 2.45395 4.32442
      vertex 4.45 2.64035 3.59844
    endloop
  endfacet
  facet normal 0 -0.999507 -0.0314087
    outer loop
      vertex 4.45 2.45395 4.32442
      vertex 4.45 2.45 4.45
      vertex 2.45 2.45 4.45
    endloop
  endfacet
  facet normal 0 -1 0
    outer loop
      vertex 4.45 2.45 4.45
      vertex 2.45 2.45 55.55
      vertex 2.45 2.45 4.45
    endloop
  endfacet
  facet normal 1 0 0
    outer loop
      vertex 4.45 137.55 4.45
      vertex 4.45 137.534 4.19933
      vertex 4.45 137.546 4.32442
    endloop
  endfacet
  facet normal 0 0.995562 -0.0941056
    outer loop
      vertex 4.45 137.546 4.32442
      vertex 4.45 137.534 4.19933
      vertex 2.45 137.534 4.19933
    endloop
  endfacet
  facet normal -1 0 0
    outer loop
      vertex 2.45 137.168 3.27443
      vertex 2.45 137.303 3.48649
      vertex 2.45 137.239 3.37835
    endloop
  endfacet
  facet normal 1 0 0
    outer loop
      vertex 4.45 137.303 3.48649
      vertex 4.45 136.919 2.99206
      vertex 4.45 137.168 3.27443
    endloop
  endfacet
  facet normal 0 0.860741 -0.509044
    outer loop
      vertex 2.45 137.303 3.48649
      vertex 4.45 137.303 3.48649
      vertex 4.45 137.239 3.37835
    endloop
  endfacet
  facet normal -1 0 0
    outer loop
      vertex 2.45 137.168 3.27443
      vertex 2.45 137.41 3.71375
      vertex 2.45 137.303 3.48649
    endloop
  endfacet
  facet normal 1 0 0
    outer loop
      vertex 4.45 137.515 4.07524
      vertex 4.45 137.303 3.48649
      vertex 4.45 137.452 3.83197
    endloop
  endfacet
  facet normal 0 0.94088 -0.33874
    outer loop
      vertex 2.45 137.41 3.71375
      vertex 4.45 137.452 3.83197
      vertex 4.45 137.41 3.71375
    endloop
  endfacet
  facet normal 0 0.987688 -0.156436
    outer loop
      vertex 4.45 137.534 4.19933
      vertex 2.45 137.515 4.07524
      vertex 2.45 137.534 4.19933
    endloop
  endfacet
  facet normal -1 0 0
    outer loop
      vertex 2.45 137.515 4.07524
      vertex 2.45 137.55 4.45
      vertex 2.45 137.534 4.19933
    endloop
  endfacet
  facet normal -1 0 0
    outer loop
      vertex 2.45 136.726 2.83197
      vertex 2.45 136.919 2.99206
      vertex 2.45 136.825 2.90897
    endloop
  endfacet
  facet normal 0 0.661308 -0.750115
    outer loop
      vertex 2.45 136.919 2.99206
      vertex 4.45 136.919 2.99206
      vertex 2.45 136.825 2.90897
    endloop
  endfacet
  facet normal 0 0.453986 -0.891009
    outer loop
      vertex 2.45 136.402 2.64035
      vertex 2.45 136.514 2.69739
      vertex 4.45 136.514 2.69739
    endloop
  endfacet
  facet normal 0 0.397152 -0.917753
    outer loop
      vertex 4.45 136.286 2.59045
      vertex 2.45 136.286 2.59045
      vertex 2.45 136.402 2.64035
    endloop
  endfacet
  facet normal 0 0.509044 -0.860741
    outer loop
      vertex 2.45 136.514 2.69739
      vertex 4.45 136.622 2.76134
      vertex 4.45 136.514 2.69739
    endloop
  endfacet
  facet normal 1 0 0
    outer loop
      vertex 4.45 136.622 2.76134
      vertex 4.45 136.286 2.59045
      vertex 4.45 136.514 2.69739
    endloop
  endfacet
  facet normal 0 0.61291 -0.790153
    outer loop
      vertex 2.45 136.726 2.83197
      vertex 2.45 136.825 2.90897
      vertex 4.45 136.726 2.83197
    endloop
  endfacet
  facet normal 1 0 0
    outer loop
      vertex 4.45 136.919 2.99206
      vertex 4.45 136.726 2.83197
      vertex 4.45 136.825 2.90897
    endloop
  endfacet
  facet normal 0 0.21814 -0.975918
    outer loop
      vertex 4.45 135.925 2.48543
      vertex 2.45 136.047 2.51283
      vertex 4.45 136.047 2.51283
    endloop
  endfacet
  facet normal -1 0 0
    outer loop
      vertex 2.45 136.047 2.51283
      vertex 2.45 136.286 2.59045
      vertex 2.45 136.168 2.54789
    endloop
  endfacet
  facet normal 0 0.278991 -0.960294
    outer loop
      vertex 2.45 136.047 2.51283
      vertex 2.45 136.168 2.54789
      vertex 4.45 136.047 2.51283
    endloop
  endfacet
  facet normal 1 0 0
    outer loop
      vertex 4.45 136.286 2.59045
      vertex 4.45 136.047 2.51283
      vertex 4.45 136.168 2.54789
    endloop
  endfacet
  facet normal 0 0.156436 -0.987688
    outer loop
      vertex 2.45 135.801 2.46577
      vertex 4.45 135.925 2.48543
      vertex 4.45 135.801 2.46577
    endloop
  endfacet
  facet normal 1 0 0
    outer loop
      vertex 4.45 135.925 2.48543
      vertex 4.45 135.55 2.45
      vertex 4.45 135.801 2.46577
    endloop
  endfacet
  facet normal 0 0.0314089 -0.999507
    outer loop
      vertex 4.45 135.55 2.45
      vertex 2.45 135.676 2.45395
      vertex 4.45 135.676 2.45395
    endloop
  endfacet
  facet normal 0 0.0314089 -0.999507
    outer loop
      vertex 4.45 135.55 2.45
      vertex 2.45 135.55 2.45
      vertex 2.45 135.676 2.45395
    endloop
  endfacet
  facet normal -1 0 0
    outer loop
      vertex 2.45 135.925 57.5146
      vertex 2.45 135.55 57.55
      vertex 2.45 135.801 57.5342
    endloop
  endfacet
  facet normal 1 3.3955e-008 3.59217e-007
    outer loop
      vertex 4.45 137.487 56.0474
      vertex 4.45 135.801 57.5342
      vertex 4.45 135.676 57.5461
    endloop
  endfacet
  facet normal -1 0 0
    outer loop
      vertex 2.45 2.99206 56.9191
      vertex 2.45 2.59045 56.2862
      vertex 2.45 2.83197 56.7256
    endloop
  endfacet
  facet normal 1 -9.53378e-008 4.26524e-007
    outer loop
      vertex 4.45 4.07524 57.5146
      vertex 4.45 3.95262 57.4872
      vertex 4.45 2.51283 56.0474
    endloop
  endfacet
  facet normal -1 0 0
    outer loop
      vertex 2.45 2.59045 56.2862
      vertex 2.45 2.45 55.55
      vertex 2.45 2.48543 55.9248
    endloop
  endfacet
  facet normal 1 0 0
    outer loop
      vertex 4.45 2.45 55.55
      vertex 4.45 2.51283 56.0474
      vertex 4.45 2.46577 55.8007
    endloop
  endfacet
  facet normal -1 0 0
    outer loop
      vertex 2.45 3.71375 57.4096
      vertex 2.45 2.99206 56.9191
      vertex 2.45 3.27443 57.168
    endloop
  endfacet
  facet normal 1 -6.98015e-007 8.99869e-007
    outer loop
      vertex 4.45 2.51283 56.0474
      vertex 4.45 3.27443 57.168
      vertex 4.45 3.17515 57.091
    endloop
  endfacet
  facet normal 0 -0.278991 0.960294
    outer loop
      vertex 4.45 3.95262 57.4872
      vertex 2.45 3.95262 57.4872
      vertex 4.45 3.83197 57.4521
    endloop
  endfacet
  facet normal 0 -0.707107 0.707107
    outer loop
      vertex 4.45 3.08091 57.0079
      vertex 2.45 2.99206 56.9191
      vertex 4.45 2.99206 56.9191
    endloop
  endfacet
  facet normal 1 -1.84632e-007 5.12831e-007
    outer loop
      vertex 4.45 3.71375 57.4096
      vertex 4.45 2.51283 56.0474
      vertex 4.45 3.83197 57.4521
    endloop
  endfacet
  facet normal 1 -1.35619e-007 4.66805e-007
    outer loop
      vertex 4.45 2.51283 56.0474
      vertex 4.45 3.95262 57.4872
      vertex 4.45 3.83197 57.4521
    endloop
  endfacet
  facet normal 0 -0.975918 0.21814
    outer loop
      vertex 2.45 2.48543 55.9248
      vertex 4.45 2.51283 56.0474
      vertex 2.45 2.51283 56.0474
    endloop
  endfacet
  facet normal 0 -0.0941056 0.995562
    outer loop
      vertex 2.45 4.19933 57.5342
      vertex 4.45 4.19933 57.5342
      vertex 4.45 4.32442 57.5461
    endloop
  endfacet
  facet normal 1 5.68661e-005 2.04732e-005
    outer loop
      vertex 4.45 137.487 56.0474
      vertex 4.45 137.452 56.168
      vertex 4.45 137.41 56.2862
    endloop
  endfacet
  facet normal 0 0.94088 0.33874
    outer loop
      vertex 4.45 137.452 56.168
      vertex 2.45 137.41 56.2862
      vertex 4.45 137.41 56.2862
    endloop
  endfacet
  facet normal -0 0.860741 0.509044
    outer loop
      vertex 2.45 137.303 56.5135
      vertex 2.45 137.239 56.6217
      vertex 4.45 137.303 56.5135
    endloop
  endfacet
  facet normal -1 0 0
    outer loop
      vertex 2.45 137.303 56.5135
      vertex 2.45 137.168 56.7256
      vertex 2.45 137.239 56.6217
    endloop
  endfacet
  facet normal 0 0.707107 0.707107
    outer loop
      vertex 4.45 137.008 56.9191
      vertex 2.45 136.919 57.0079
      vertex 4.45 136.919 57.0079
    endloop
  endfacet
  facet normal -0 0.661308 0.750115
    outer loop
      vertex 2.45 136.919 57.0079
      vertex 2.45 136.825 57.091
      vertex 4.45 136.919 57.0079
    endloop
  endfacet
  facet normal 0 0.562081 0.827082
    outer loop
      vertex 4.45 136.726 57.168
      vertex 2.45 136.726 57.168
      vertex 2.45 136.622 57.2387
    endloop
  endfacet
  facet normal -1 0 0
    outer loop
      vertex 2.45 136.726 57.168
      vertex 2.45 136.286 57.4096
      vertex 2.45 136.514 57.3026
    endloop
  endfacet
  facet normal 0 0.453986 0.891009
    outer loop
      vertex 4.45 136.514 57.3026
      vertex 2.45 136.514 57.3026
      vertex 4.45 136.402 57.3597
    endloop
  endfacet
  facet normal 0 0.397152 0.917753
    outer loop
      vertex 2.45 136.286 57.4096
      vertex 4.45 136.402 57.3597
      vertex 2.45 136.402 57.3597
    endloop
  endfacet
  facet normal 0 0.156436 0.987688
    outer loop
      vertex 2.45 135.925 57.5146
      vertex 2.45 135.801 57.5342
      vertex 4.45 135.801 57.5342
    endloop
  endfacet
  facet normal -1 0 0
    outer loop
      vertex 2.45 136.286 57.4096
      vertex 2.45 136.047 57.4872
      vertex 2.45 136.168 57.4521
    endloop
  endfacet
  facet normal -0 0.995562 0.0941056
    outer loop
      vertex 2.45 137.546 55.6756
      vertex 4.45 137.534 55.8007
      vertex 4.45 137.546 55.6756
    endloop
  endfacet
  facet normal 1 0 0
    outer loop
      vertex 4.45 137.534 55.8007
      vertex 4.45 137.55 55.55
      vertex 4.45 137.546 55.6756
    endloop
  endfacet
  facet normal 0 0.999506 0.0314165
    outer loop
      vertex 2.45 137.546 55.6756
      vertex 4.45 137.55 55.55
      vertex 3.45 137.55 55.55
    endloop
  endfacet
  facet normal 0 1 0
    outer loop
      vertex 4.45 137.55 55.55
      vertex 2.45 137.55 55.55
      vertex 3.45 137.55 55.55
    endloop
  endfacet
  facet normal -1 0 0
    outer loop
      vertex 2.45 137.546 55.6756
      vertex 2.45 137.452 56.168
      vertex 2.45 137.534 55.8007
    endloop
  endfacet
  facet normal 0 0.987688 0.156436
    outer loop
      vertex 4.45 137.515 55.9248
      vertex 2.45 137.534 55.8007
      vertex 2.45 137.515 55.9248
    endloop
  endfacet
  facet normal 1 0 0
    outer loop
      vertex 4.45 3.83197 2.54789
      vertex 4.45 3.08091 2.99206
      vertex 4.45 3.71375 2.59045
    endloop
  endfacet
  facet normal 1 0 0
    outer loop
      vertex 4.45 3.71375 2.59045
      vertex 4.45 3.08091 2.99206
      vertex 4.45 3.48649 2.69739
    endloop
  endfacet
  facet normal 0 -0.156436 -0.987688
    outer loop
      vertex 2.45 4.07524 2.48543
      vertex 2.45 4.19933 2.46577
      vertex 4.45 4.07524 2.48543
    endloop
  endfacet
  facet normal 1 0 0
    outer loop
      vertex 4.45 4.45 2.45
      vertex 4.45 4.07524 2.48543
      vertex 4.45 4.19933 2.46577
    endloop
  endfacet
  facet normal -0 -0.661308 -0.750115
    outer loop
      vertex 4.45 3.08091 2.99206
      vertex 2.45 3.08091 2.99206
      vertex 2.45 3.17515 2.90897
    endloop
  endfacet
  facet normal -1 0 0
    outer loop
      vertex 2.45 3.08091 2.99206
      vertex 2.45 3.59844 2.64035
      vertex 2.45 3.27443 2.83197
    endloop
  endfacet
  facet normal -1 0 0
    outer loop
      vertex 2.45 2.69739 3.48649
      vertex 2.45 3.08091 2.99206
      vertex 2.45 2.83197 3.27443
    endloop
  endfacet
  facet normal 1 0 0
    outer loop
      vertex 4.45 3.08091 2.99206
      vertex 4.45 2.83197 3.27443
      vertex 4.45 2.99206 3.08091
    endloop
  endfacet
  facet normal 0 -0.891009 -0.453986
    outer loop
      vertex 2.45 2.69739 3.48649
      vertex 4.45 2.64035 3.59844
      vertex 2.45 2.64035 3.59844
    endloop
  endfacet
  facet normal -1 0 0
    outer loop
      vertex 2.45 2.45 4.45
      vertex 2.45 2.59045 3.71375
      vertex 2.45 2.48543 4.07524
    endloop
  endfacet
  facet normal 2.99609e-008 0.999506 -0.0314163
    outer loop
      vertex 4.45 137.55 4.45
      vertex 4.45 137.546 4.32442
      vertex 3.45 137.55 4.45
    endloop
  endfacet
  facet normal 0 0.999506 -0.0314165
    outer loop
      vertex 4.45 137.546 4.32442
      vertex 2.45 137.55 4.45
      vertex 3.45 137.55 4.45
    endloop
  endfacet
  facet normal 1 0 0
    outer loop
      vertex 4.45 137.168 3.27443
      vertex 4.45 137.008 3.08091
      vertex 4.45 137.091 3.17515
    endloop
  endfacet
  facet normal 1 0 0
    outer loop
      vertex 4.45 137.168 3.27443
      vertex 4.45 136.919 2.99206
      vertex 4.45 137.008 3.08091
    endloop
  endfacet
  facet normal 0 0.750115 -0.661308
    outer loop
      vertex 4.45 137.008 3.08091
      vertex 2.45 137.008 3.08091
      vertex 2.45 137.091 3.17515
    endloop
  endfacet
  facet normal -1 0 0
    outer loop
      vertex 2.45 137.008 3.08091
      vertex 2.45 137.168 3.27443
      vertex 2.45 137.091 3.17515
    endloop
  endfacet
  facet normal 1 0 0
    outer loop
      vertex 4.45 137.303 3.48649
      vertex 4.45 137.168 3.27443
      vertex 4.45 137.239 3.37835
    endloop
  endfacet
  facet normal 0 0.827082 -0.562081
    outer loop
      vertex 4.45 137.168 3.27443
      vertex 2.45 137.168 3.27443
      vertex 4.45 137.239 3.37835
    endloop
  endfacet
  facet normal 0 0.891009 -0.453986
    outer loop
      vertex 4.45 137.303 3.48649
      vertex 2.45 137.303 3.48649
      vertex 2.45 137.36 3.59844
    endloop
  endfacet
  facet normal -1 0 0
    outer loop
      vertex 2.45 137.303 3.48649
      vertex 2.45 137.41 3.71375
      vertex 2.45 137.36 3.59844
    endloop
  endfacet
  facet normal 1 0 0
    outer loop
      vertex 4.45 137.515 4.07524
      vertex 4.45 137.452 3.83197
      vertex 4.45 137.487 3.95262
    endloop
  endfacet
  facet normal -1 0 0
    outer loop
      vertex 2.45 137.41 3.71375
      vertex 2.45 137.487 3.95262
      vertex 2.45 137.452 3.83197
    endloop
  endfacet
  facet normal 0 0.891009 -0.453986
    outer loop
      vertex 4.45 137.303 3.48649
      vertex 2.45 137.36 3.59844
      vertex 4.45 137.36 3.59844
    endloop
  endfacet
  facet normal 0 0.917753 -0.397152
    outer loop
      vertex 2.45 137.36 3.59844
      vertex 2.45 137.41 3.71375
      vertex 4.45 137.41 3.71375
    endloop
  endfacet
  facet normal 0 0.995562 -0.0941056
    outer loop
      vertex 4.45 137.546 4.32442
      vertex 2.45 137.534 4.19933
      vertex 2.45 137.546 4.32442
    endloop
  endfacet
  facet normal -1 0 0
    outer loop
      vertex 2.45 137.534 4.19933
      vertex 2.45 137.55 4.45
      vertex 2.45 137.546 4.32442
    endloop
  endfacet
  facet normal 0 0.453986 -0.891009
    outer loop
      vertex 2.45 136.402 2.64035
      vertex 4.45 136.514 2.69739
      vertex 4.45 136.402 2.64035
    endloop
  endfacet
  facet normal 1 0 0
    outer loop
      vertex 4.45 136.514 2.69739
      vertex 4.45 136.286 2.59045
      vertex 4.45 136.402 2.64035
    endloop
  endfacet
  facet normal 0 0.61291 -0.790153
    outer loop
      vertex 4.45 136.726 2.83197
      vertex 2.45 136.825 2.90897
      vertex 4.45 136.825 2.90897
    endloop
  endfacet
  facet normal 0 0.661308 -0.750115
    outer loop
      vertex 2.45 136.825 2.90897
      vertex 4.45 136.919 2.99206
      vertex 4.45 136.825 2.90897
    endloop
  endfacet
  facet normal 0 0.278991 -0.960294
    outer loop
      vertex 4.45 136.047 2.51283
      vertex 2.45 136.168 2.54789
      vertex 4.45 136.168 2.54789
    endloop
  endfacet
  facet normal 0 0.33874 -0.94088
    outer loop
      vertex 2.45 136.168 2.54789
      vertex 4.45 136.286 2.59045
      vertex 4.45 136.168 2.54789
    endloop
  endfacet
  facet normal 0 0.0941056 -0.995562
    outer loop
      vertex 2.45 135.676 2.45395
      vertex 4.45 135.801 2.46577
      vertex 4.45 135.676 2.45395
    endloop
  endfacet
  facet normal 1 0 0
    outer loop
      vertex 4.45 135.801 2.46577
      vertex 4.45 135.55 2.45
      vertex 4.45 135.676 2.45395
    endloop
  endfacet
  facet normal 0 0.0941056 0.995562
    outer loop
      vertex 4.45 135.801 57.5342
      vertex 2.45 135.801 57.5342
      vertex 2.45 135.676 57.5461
    endloop
  endfacet
  facet normal 0 0.0941056 0.995562
    outer loop
      vertex 4.45 135.801 57.5342
      vertex 2.45 135.676 57.5461
      vertex 4.45 135.676 57.5461
    endloop
  endfacet
  facet normal -1 0 0
    outer loop
      vertex 2.45 135.801 57.5342
      vertex 2.45 135.55 57.55
      vertex 2.45 135.676 57.5461
    endloop
  endfacet
  facet normal -0 0.0314165 0.999506
    outer loop
      vertex 2.45 135.55 57.55
      vertex 4.45 135.55 57.55
      vertex 2.45 135.676 57.5461
    endloop
  endfacet
  facet normal 0 -0.987688 0.156436
    outer loop
      vertex 2.45 2.48543 55.9248
      vertex 4.45 2.46577 55.8007
      vertex 4.45 2.48543 55.9248
    endloop
  endfacet
  facet normal 1 0 0
    outer loop
      vertex 4.45 2.45 55.55
      vertex 4.45 137.487 56.0474
      vertex 4.45 2.51283 56.0474
    endloop
  endfacet
  facet normal 0 -0.917753 0.397152
    outer loop
      vertex 2.45 2.59045 56.2862
      vertex 4.45 2.59045 56.2862
      vertex 2.45 2.64035 56.4016
    endloop
  endfacet
  facet normal -1 0 0
    outer loop
      vertex 2.45 2.99206 56.9191
      vertex 2.45 2.83197 56.7256
      vertex 2.45 2.90897 56.8248
    endloop
  endfacet
  facet normal -1 0 0
    outer loop
      vertex 2.45 2.48543 55.9248
      vertex 2.45 2.45 55.55
      vertex 2.45 2.46577 55.8007
    endloop
  endfacet
  facet normal 1 0 0
    outer loop
      vertex 4.45 2.45 55.55
      vertex 4.45 2.46577 55.8007
      vertex 4.45 2.45395 55.6756
    endloop
  endfacet
  facet normal 0 -0.562081 0.827082
    outer loop
      vertex 2.45 3.27443 57.168
      vertex 4.45 3.37835 57.2387
      vertex 2.45 3.37835 57.2387
    endloop
  endfacet
  facet normal 1 -5.37337e-007 7.90673e-007
    outer loop
      vertex 4.45 2.51283 56.0474
      vertex 4.45 3.37835 57.2387
      vertex 4.45 3.27443 57.168
    endloop
  endfacet
  facet normal -1 0 0
    outer loop
      vertex 2.45 3.27443 57.168
      vertex 2.45 2.99206 56.9191
      vertex 2.45 3.08091 57.0079
    endloop
  endfacet
  facet normal 0 -0.707107 0.707107
    outer loop
      vertex 2.45 2.99206 56.9191
      vertex 4.45 3.08091 57.0079
      vertex 2.45 3.08091 57.0079
    endloop
  endfacet
  facet normal 0 -0.21814 0.975918
    outer loop
      vertex 4.45 3.95262 57.4872
      vertex 2.45 4.07524 57.5146
      vertex 2.45 3.95262 57.4872
    endloop
  endfacet
  facet normal -1 0 0
    outer loop
      vertex 2.45 4.07524 57.5146
      vertex 2.45 3.71375 57.4096
      vertex 2.45 3.95262 57.4872
    endloop
  endfacet
  facet normal 0 -0.33874 0.94088
    outer loop
      vertex 2.45 3.71375 57.4096
      vertex 4.45 3.83197 57.4521
      vertex 2.45 3.83197 57.4521
    endloop
  endfacet
  facet normal 0 -0.33874 0.94088
    outer loop
      vertex 2.45 3.71375 57.4096
      vertex 4.45 3.71375 57.4096
      vertex 4.45 3.83197 57.4521
    endloop
  endfacet
  facet normal 0 -0.156436 0.987688
    outer loop
      vertex 2.45 4.07524 57.5146
      vertex 4.45 4.19933 57.5342
      vertex 2.45 4.19933 57.5342
    endloop
  endfacet
  facet normal 1 -3.3955e-008 3.59217e-007
    outer loop
      vertex 4.45 4.19933 57.5342
      vertex 4.45 2.51283 56.0474
      vertex 4.45 4.32442 57.5461
    endloop
  endfacet
  facet normal -0 0.891009 0.453986
    outer loop
      vertex 2.45 137.303 56.5135
      vertex 4.45 137.303 56.5135
      vertex 2.45 137.36 56.4016
    endloop
  endfacet
  facet normal 0 0.94088 0.33874
    outer loop
      vertex 4.45 137.452 56.168
      vertex 2.45 137.452 56.168
      vertex 2.45 137.41 56.2862
    endloop
  endfacet
  facet normal 1 5.23332e-006 3.095e-006
    outer loop
      vertex 4.45 137.487 56.0474
      vertex 4.45 137.303 56.5135
      vertex 4.45 137.239 56.6217
    endloop
  endfacet
  facet normal 0 0.860741 0.509044
    outer loop
      vertex 4.45 137.303 56.5135
      vertex 2.45 137.239 56.6217
      vertex 4.45 137.239 56.6217
    endloop
  endfacet
  facet normal -1 0 0
    outer loop
      vertex 2.45 137.168 56.7256
      vertex 2.45 136.919 57.0079
      vertex 2.45 137.091 56.8248
    endloop
  endfacet
  facet normal 1 1.64835e-006 1.4532e-006
    outer loop
      vertex 4.45 137.008 56.9191
      vertex 4.45 137.487 56.0474
      vertex 4.45 137.091 56.8248
    endloop
  endfacet
  facet normal 1 1.21492e-006 1.21492e-006
    outer loop
      vertex 4.45 137.487 56.0474
      vertex 4.45 137.008 56.9191
      vertex 4.45 136.919 57.0079
    endloop
  endfacet
  facet normal 0 0.750115 0.661308
    outer loop
      vertex 4.45 137.008 56.9191
      vertex 2.45 137.091 56.8248
      vertex 2.45 137.008 56.9191
    endloop
  endfacet
  facet normal -0 0.509044 0.860741
    outer loop
      vertex 2.45 136.514 57.3026
      vertex 4.45 136.514 57.3026
      vertex 2.45 136.622 57.2387
    endloop
  endfacet
  facet normal 0 0.562081 0.827082
    outer loop
      vertex 4.45 136.726 57.168
      vertex 2.45 136.622 57.2387
      vertex 4.45 136.622 57.2387
    endloop
  endfacet
  facet normal -0 0.509044 0.860741
    outer loop
      vertex 2.45 136.622 57.2387
      vertex 4.45 136.514 57.3026
      vertex 4.45 136.622 57.2387
    endloop
  endfacet
  facet normal 1 4.1507e-007 7.01841e-007
    outer loop
      vertex 4.45 136.514 57.3026
      vertex 4.45 137.487 56.0474
      vertex 4.45 136.622 57.2387
    endloop
  endfacet
  facet normal 1 2.44928e-007 5.65989e-007
    outer loop
      vertex 4.45 137.487 56.0474
      vertex 4.45 136.402 57.3597
      vertex 4.45 136.286 57.4096
    endloop
  endfacet
  facet normal 0 0.397152 0.917753
    outer loop
      vertex 4.45 136.402 57.3597
      vertex 2.45 136.286 57.4096
      vertex 4.45 136.286 57.4096
    endloop
  endfacet
  facet normal 0 0.278991 0.960294
    outer loop
      vertex 2.45 136.047 57.4872
      vertex 4.45 136.168 57.4521
      vertex 2.45 136.168 57.4521
    endloop
  endfacet
  facet normal 0 0.33874 0.94088
    outer loop
      vertex 4.45 136.168 57.4521
      vertex 2.45 136.286 57.4096
      vertex 2.45 136.168 57.4521
    endloop
  endfacet
  facet normal -1 0 0
    outer loop
      vertex 2.45 137.534 55.8007
      vertex 2.45 137.452 56.168
      vertex 2.45 137.487 56.0474
    endloop
  endfacet
  facet normal 0 0.960294 0.278991
    outer loop
      vertex 2.45 137.452 56.168
      vertex 4.45 137.487 56.0474
      vertex 2.45 137.487 56.0474
    endloop
  endfacet
  facet normal 0 -0.33874 -0.94088
    outer loop
      vertex 2.45 3.83197 2.54789
      vertex 4.45 3.71375 2.59045
      vertex 2.45 3.71375 2.59045
    endloop
  endfacet
  facet normal -0 -0.397152 -0.917753
    outer loop
      vertex 4.45 3.71375 2.59045
      vertex 2.45 3.59844 2.64035
      vertex 2.45 3.71375 2.59045
    endloop
  endfacet
  facet normal 1 0 0
    outer loop
      vertex 4.45 4.07524 2.48543
      vertex 4.45 3.83197 2.54789
      vertex 4.45 3.95262 2.51283
    endloop
  endfacet
  facet normal 0 -0.278991 -0.960294
    outer loop
      vertex 4.45 3.83197 2.54789
      vertex 2.45 3.95262 2.51283
      vertex 4.45 3.95262 2.51283
    endloop
  endfacet
  facet normal 0 -0.0941056 -0.995562
    outer loop
      vertex 2.45 4.19933 2.46577
      vertex 2.45 4.32442 2.45395
      vertex 4.45 4.19933 2.46577
    endloop
  endfacet
  facet normal 1 0 0
    outer loop
      vertex 4.45 4.45 2.45
      vertex 4.45 4.19933 2.46577
      vertex 4.45 4.32442 2.45395
    endloop
  endfacet
  facet normal 0 -0.661308 -0.750115
    outer loop
      vertex 4.45 3.08091 2.99206
      vertex 2.45 3.17515 2.90897
      vertex 4.45 3.17515 2.90897
    endloop
  endfacet
  facet normal 0 -0.453986 -0.891009
    outer loop
      vertex 2.45 3.59844 2.64035
      vertex 4.45 3.48649 2.69739
      vertex 2.45 3.48649 2.69739
    endloop
  endfacet
  facet normal -1 0 0
    outer loop
      vertex 2.45 3.08091 2.99206
      vertex 2.45 3.27443 2.83197
      vertex 2.45 3.17515 2.90897
    endloop
  endfacet
  facet normal 0 -0.61291 -0.790153
    outer loop
      vertex 2.45 3.17515 2.90897
      vertex 2.45 3.27443 2.83197
      vertex 4.45 3.27443 2.83197
    endloop
  endfacet
  facet normal -1 0 0
    outer loop
      vertex 2.45 2.69739 3.48649
      vertex 2.45 2.83197 3.27443
      vertex 2.45 2.76134 3.37835
    endloop
  endfacet
  facet normal 1 0 0
    outer loop
      vertex 4.45 2.99206 3.08091
      vertex 4.45 2.83197 3.27443
      vertex 4.45 2.90897 3.17515
    endloop
  endfacet
  facet normal -1 0 0
    outer loop
      vertex 2.45 2.83197 3.27443
      vertex 2.45 3.08091 2.99206
      vertex 2.45 2.99206 3.08091
    endloop
  endfacet
  facet normal 0 -0.707107 -0.707107
    outer loop
      vertex 2.45 3.08091 2.99206
      vertex 4.45 3.08091 2.99206
      vertex 2.45 2.99206 3.08091
    endloop
  endfacet
  facet normal 0 -0.995562 -0.0941056
    outer loop
      vertex 4.45 2.45395 4.32442
      vertex 2.45 2.46577 4.19933
      vertex 4.45 2.46577 4.19933
    endloop
  endfacet
  facet normal 0 -0.987688 -0.156436
    outer loop
      vertex 2.45 2.46577 4.19933
      vertex 2.45 2.48543 4.07524
      vertex 4.45 2.46577 4.19933
    endloop
  endfacet
  facet normal -0 -0.917753 -0.397152
    outer loop
      vertex 4.45 2.64035 3.59844
      vertex 2.45 2.59045 3.71375
      vertex 2.45 2.64035 3.59844
    endloop
  endfacet
  facet normal -1 0 0
    outer loop
      vertex 2.45 2.59045 3.71375
      vertex 2.45 2.69739 3.48649
      vertex 2.45 2.64035 3.59844
    endloop
  endfacet
  facet normal 0 0.750115 -0.661308
    outer loop
      vertex 4.45 137.008 3.08091
      vertex 2.45 137.091 3.17515
      vertex 4.45 137.091 3.17515
    endloop
  endfacet
  facet normal 0 0.790153 -0.61291
    outer loop
      vertex 2.45 137.091 3.17515
      vertex 4.45 137.168 3.27443
      vertex 4.45 137.091 3.17515
    endloop
  endfacet
  facet normal 0 0.860741 -0.509044
    outer loop
      vertex 2.45 137.303 3.48649
      vertex 4.45 137.239 3.37835
      vertex 2.45 137.239 3.37835
    endloop
  endfacet
  facet normal 0 0.827082 -0.562081
    outer loop
      vertex 4.45 137.239 3.37835
      vertex 2.45 137.168 3.27443
      vertex 2.45 137.239 3.37835
    endloop
  endfacet
  facet normal 0 0.960294 -0.278991
    outer loop
      vertex 4.45 137.452 3.83197
      vertex 2.45 137.487 3.95262
      vertex 4.45 137.487 3.95262
    endloop
  endfacet
  facet normal 0 0.975918 -0.21814
    outer loop
      vertex 2.45 137.487 3.95262
      vertex 4.45 137.515 4.07524
      vertex 4.45 137.487 3.95262
    endloop
  endfacet
  facet normal 0 0.960294 -0.278991
    outer loop
      vertex 2.45 137.487 3.95262
      vertex 4.45 137.452 3.83197
      vertex 2.45 137.452 3.83197
    endloop
  endfacet
  facet normal 0 0.94088 -0.33874
    outer loop
      vertex 4.45 137.452 3.83197
      vertex 2.45 137.41 3.71375
      vertex 2.45 137.452 3.83197
    endloop
  endfacet
  facet normal 0 0.917753 -0.397152
    outer loop
      vertex 2.45 137.36 3.59844
      vertex 4.45 137.41 3.71375
      vertex 4.45 137.36 3.59844
    endloop
  endfacet
  facet normal 1 0 0
    outer loop
      vertex 4.45 137.41 3.71375
      vertex 4.45 137.303 3.48649
      vertex 4.45 137.36 3.59844
    endloop
  endfacet
  facet normal 1 9.53378e-008 4.26524e-007
    outer loop
      vertex 4.45 137.487 56.0474
      vertex 4.45 136.047 57.4872
      vertex 4.45 135.925 57.5146
    endloop
  endfacet
  facet normal 0 0.21814 0.975918
    outer loop
      vertex 4.45 136.047 57.4872
      vertex 2.45 135.925 57.5146
      vertex 4.45 135.925 57.5146
    endloop
  endfacet
  facet normal -0 0.0314165 0.999506
    outer loop
      vertex 2.45 135.676 57.5461
      vertex 4.45 135.55 57.55
      vertex 4.45 135.676 57.5461
    endloop
  endfacet
  facet normal 1 1.03958e-008 3.30739e-007
    outer loop
      vertex 4.45 135.55 57.55
      vertex 4.45 137.487 56.0474
      vertex 4.45 135.676 57.5461
    endloop
  endfacet
  facet normal 1 -1.03957e-008 3.30739e-007
    outer loop
      vertex 4.45 2.51283 56.0474
      vertex 4.45 4.45 57.55
      vertex 4.45 4.32442 57.5461
    endloop
  endfacet
  facet normal 0 -0.0314163 0.999506
    outer loop
      vertex 4.45 4.45 57.55
      vertex 2.45 4.45 57.55
      vertex 4.45 4.32442 57.5461
    endloop
  endfacet
  facet normal 0 -0.827082 0.562081
    outer loop
      vertex 4.45 2.83197 56.7256
      vertex 2.45 2.83197 56.7256
      vertex 2.45 2.76134 56.6217
    endloop
  endfacet
  facet normal 0 -0.790153 0.61291
    outer loop
      vertex 2.45 2.83197 56.7256
      vertex 4.45 2.83197 56.7256
      vertex 2.45 2.90897 56.8248
    endloop
  endfacet
  facet normal 1 -5.68661e-005 2.04732e-005
    outer loop
      vertex 4.45 2.51283 56.0474
      vertex 4.45 2.59045 56.2862
      vertex 4.45 2.54789 56.168
    endloop
  endfacet
  facet normal 0 -0.94088 0.33874
    outer loop
      vertex 4.45 2.59045 56.2862
      vertex 2.45 2.59045 56.2862
      vertex 4.45 2.54789 56.168
    endloop
  endfacet
  facet normal 0 -0.960294 0.278991
    outer loop
      vertex 4.45 2.51283 56.0474
      vertex 4.45 2.54789 56.168
      vertex 2.45 2.51283 56.0474
    endloop
  endfacet
  facet normal -1 0 0
    outer loop
      vertex 2.45 2.59045 56.2862
      vertex 2.45 2.51283 56.0474
      vertex 2.45 2.54789 56.168
    endloop
  endfacet
  facet normal 1 -3.36364e-006 2.28591e-006
    outer loop
      vertex 4.45 2.51283 56.0474
      vertex 4.45 2.83197 56.7256
      vertex 4.45 2.76134 56.6217
    endloop
  endfacet
  facet normal -1 0 0
    outer loop
      vertex 2.45 2.83197 56.7256
      vertex 2.45 2.59045 56.2862
      vertex 2.45 2.69739 56.5135
    endloop
  endfacet
  facet normal 0 -0.987688 0.156436
    outer loop
      vertex 2.45 2.48543 55.9248
      vertex 2.45 2.46577 55.8007
      vertex 4.45 2.46577 55.8007
    endloop
  endfacet
  facet normal 0 -0.995562 0.0941056
    outer loop
      vertex 4.45 2.46577 55.8007
      vertex 2.45 2.46577 55.8007
      vertex 2.45 2.45395 55.6756
    endloop
  endfacet
  facet normal -1 0 0
    outer loop
      vertex 2.45 2.46577 55.8007
      vertex 2.45 2.45 55.55
      vertex 2.45 2.45395 55.6756
    endloop
  endfacet
  facet normal 0 -0.999507 0.0314089
    outer loop
      vertex 2.45 2.45 55.55
      vertex 4.45 2.45 55.55
      vertex 2.45 2.45395 55.6756
    endloop
  endfacet
  facet normal 0 -0.562081 0.827082
    outer loop
      vertex 4.45 3.37835 57.2387
      vertex 2.45 3.27443 57.168
      vertex 4.45 3.27443 57.168
    endloop
  endfacet
  facet normal 0 -0.61291 0.790153
    outer loop
      vertex 4.45 3.27443 57.168
      vertex 2.45 3.27443 57.168
      vertex 2.45 3.17515 57.091
    endloop
  endfacet
  facet normal 1 -4.1507e-007 7.01841e-007
    outer loop
      vertex 4.45 3.37835 57.2387
      vertex 4.45 2.51283 56.0474
      vertex 4.45 3.48649 57.3026
    endloop
  endfacet
  facet normal 0 -0.509044 0.860741
    outer loop
      vertex 4.45 3.37835 57.2387
      vertex 4.45 3.48649 57.3026
      vertex 2.45 3.48649 57.3026
    endloop
  endfacet
  facet normal -1 0 0
    outer loop
      vertex 2.45 3.27443 57.168
      vertex 2.45 3.08091 57.0079
      vertex 2.45 3.17515 57.091
    endloop
  endfacet
  facet normal 0 -0.661308 0.750115
    outer loop
      vertex 2.45 3.08091 57.0079
      vertex 4.45 3.08091 57.0079
      vertex 2.45 3.17515 57.091
    endloop
  endfacet
  facet normal 0 -0.278991 0.960294
    outer loop
      vertex 4.45 3.83197 57.4521
      vertex 2.45 3.95262 57.4872
      vertex 2.45 3.83197 57.4521
    endloop
  endfacet
  facet normal -1 0 0
    outer loop
      vertex 2.45 3.95262 57.4872
      vertex 2.45 3.71375 57.4096
      vertex 2.45 3.83197 57.4521
    endloop
  endfacet
  facet normal 1 1.8514e-005 8.01183e-006
    outer loop
      vertex 4.45 137.487 56.0474
      vertex 4.45 137.41 56.2862
      vertex 4.45 137.36 56.4016
    endloop
  endfacet
  facet normal 0 0.917753 0.397152
    outer loop
      vertex 4.45 137.41 56.2862
      vertex 2.45 137.36 56.4016
      vertex 4.45 137.36 56.4016
    endloop
  endfacet
  facet normal 0 0.917753 0.397152
    outer loop
      vertex 4.45 137.41 56.2862
      vertex 2.45 137.41 56.2862
      vertex 2.45 137.36 56.4016
    endloop
  endfacet
  facet normal -1 0 0
    outer loop
      vertex 2.45 137.41 56.2862
      vertex 2.45 137.303 56.5135
      vertex 2.45 137.36 56.4016
    endloop
  endfacet
  facet normal -0 0.827082 0.562081
    outer loop
      vertex 2.45 137.239 56.6217
      vertex 4.45 137.168 56.7256
      vertex 4.45 137.239 56.6217
    endloop
  endfacet
  facet normal 1 3.36364e-006 2.28591e-006
    outer loop
      vertex 4.45 137.168 56.7256
      vertex 4.45 137.487 56.0474
      vertex 4.45 137.239 56.6217
    endloop
  endfacet
  facet normal 0 0.750115 0.661308
    outer loop
      vertex 4.45 137.008 56.9191
      vertex 4.45 137.091 56.8248
      vertex 2.45 137.091 56.8248
    endloop
  endfacet
  facet normal 0 0.790153 0.61291
    outer loop
      vertex 4.45 137.091 56.8248
      vertex 2.45 137.168 56.7256
      vertex 2.45 137.091 56.8248
    endloop
  endfacet
  facet normal -1 0 0
    outer loop
      vertex 2.45 136.919 57.0079
      vertex 2.45 136.726 57.168
      vertex 2.45 136.825 57.091
    endloop
  endfacet
  facet normal -0 0.61291 0.790153
    outer loop
      vertex 2.45 136.726 57.168
      vertex 4.45 136.726 57.168
      vertex 2.45 136.825 57.091
    endloop
  endfacet
  facet normal 1 9.14394e-007 1.03719e-006
    outer loop
      vertex 4.45 137.487 56.0474
      vertex 4.45 136.919 57.0079
      vertex 4.45 136.825 57.091
    endloop
  endfacet
  facet normal 0 0.661308 0.750115
    outer loop
      vertex 4.45 136.919 57.0079
      vertex 2.45 136.825 57.091
      vertex 4.45 136.825 57.091
    endloop
  endfacet
  facet normal 0 0.453986 0.891009
    outer loop
      vertex 4.45 136.402 57.3597
      vertex 2.45 136.514 57.3026
      vertex 2.45 136.402 57.3597
    endloop
  endfacet
  facet normal -1 0 0
    outer loop
      vertex 2.45 136.514 57.3026
      vertex 2.45 136.286 57.4096
      vertex 2.45 136.402 57.3597
    endloop
  endfacet
  facet normal -0 0.33874 0.94088
    outer loop
      vertex 2.45 136.286 57.4096
      vertex 4.45 136.168 57.4521
      vertex 4.45 136.286 57.4096
    endloop
  endfacet
  facet normal 1 1.84632e-007 5.12831e-007
    outer loop
      vertex 4.45 136.168 57.4521
      vertex 4.45 137.487 56.0474
      vertex 4.45 136.286 57.4096
    endloop
  endfacet
  facet normal -1 0 0
    outer loop
      vertex 2.45 137.534 55.8007
      vertex 2.45 137.487 56.0474
      vertex 2.45 137.515 55.9248
    endloop
  endfacet
  facet normal 0 0.975918 0.21814
    outer loop
      vertex 2.45 137.487 56.0474
      vertex 4.45 137.515 55.9248
      vertex 2.45 137.515 55.9248
    endloop
  endfacet
  facet normal 0 -0.0941056 -0.995562
    outer loop
      vertex 4.45 4.19933 2.46577
      vertex 2.45 4.32442 2.45395
      vertex 4.45 4.32442 2.45395
    endloop
  endfacet
  facet normal 0 -0.0314087 -0.999507
    outer loop
      vertex 2.45 4.32442 2.45395
      vertex 4.45 4.45 2.45
      vertex 4.45 4.32442 2.45395
    endloop
  endfacet
  facet normal 1 0 0
    outer loop
      vertex 4.45 3.71375 2.59045
      vertex 4.45 3.48649 2.69739
      vertex 4.45 3.59844 2.64035
    endloop
  endfacet
  facet normal 0 -0.453986 -0.891009
    outer loop
      vertex 4.45 3.48649 2.69739
      vertex 2.45 3.59844 2.64035
      vertex 4.45 3.59844 2.64035
    endloop
  endfacet
  facet normal -0 -0.562081 -0.827082
    outer loop
      vertex 4.45 3.27443 2.83197
      vertex 2.45 3.27443 2.83197
      vertex 4.45 3.37835 2.76134
    endloop
  endfacet
  facet normal 1 0 0
    outer loop
      vertex 4.45 3.48649 2.69739
      vertex 4.45 3.08091 2.99206
      vertex 4.45 3.27443 2.83197
    endloop
  endfacet
  facet normal 0 -0.509044 -0.860741
    outer loop
      vertex 2.45 3.48649 2.69739
      vertex 4.45 3.37835 2.76134
      vertex 2.45 3.37835 2.76134
    endloop
  endfacet
  facet normal -1 0 0
    outer loop
      vertex 2.45 3.27443 2.83197
      vertex 2.45 3.59844 2.64035
      vertex 2.45 3.48649 2.69739
    endloop
  endfacet
  facet normal 1 0 0
    outer loop
      vertex 4.45 2.83197 3.27443
      vertex 4.45 2.64035 3.59844
      vertex 4.45 2.69739 3.48649
    endloop
  endfacet
  facet normal 0 -0.891009 -0.453986
    outer loop
      vertex 4.45 2.64035 3.59844
      vertex 2.45 2.69739 3.48649
      vertex 4.45 2.69739 3.48649
    endloop
  endfacet
  facet normal 0 -0.860741 -0.509044
    outer loop
      vertex 4.45 2.69739 3.48649
      vertex 2.45 2.76134 3.37835
      vertex 4.45 2.76134 3.37835
    endloop
  endfacet
  facet normal -0 -0.860741 -0.509044
    outer loop
      vertex 4.45 2.69739 3.48649
      vertex 2.45 2.69739 3.48649
      vertex 2.45 2.76134 3.37835
    endloop
  endfacet
  facet normal -0 -0.790153 -0.61291
    outer loop
      vertex 4.45 2.83197 3.27443
      vertex 2.45 2.83197 3.27443
      vertex 2.45 2.90897 3.17515
    endloop
  endfacet
  facet normal 0 -0.707107 -0.707107
    outer loop
      vertex 2.45 2.99206 3.08091
      vertex 4.45 3.08091 2.99206
      vertex 4.45 2.99206 3.08091
    endloop
  endfacet
  facet normal -1 0 0
    outer loop
      vertex 2.45 2.83197 3.27443
      vertex 2.45 2.99206 3.08091
      vertex 2.45 2.90897 3.17515
    endloop
  endfacet
  facet normal 0 -0.750115 -0.661308
    outer loop
      vertex 2.45 2.99206 3.08091
      vertex 4.45 2.99206 3.08091
      vertex 2.45 2.90897 3.17515
    endloop
  endfacet
  facet normal -1 0 0
    outer loop
      vertex 2.45 2.45 4.45
      vertex 2.45 2.48543 4.07524
      vertex 2.45 2.46577 4.19933
    endloop
  endfacet
  facet normal -0 -0.975918 -0.21814
    outer loop
      vertex 4.45 2.51283 3.95262
      vertex 2.45 2.48543 4.07524
      vertex 2.45 2.51283 3.95262
    endloop
  endfacet
  facet normal 1 0 0
    outer loop
      vertex 4.45 2.64035 3.59844
      vertex 4.45 2.51283 3.95262
      vertex 4.45 2.54789 3.83197
    endloop
  endfacet
  facet normal 1 0 0
    outer loop
      vertex 4.45 2.64035 3.59844
      vertex 4.45 2.45395 4.32442
      vertex 4.45 2.51283 3.95262
    endloop
  endfacet
  facet normal -0 0.156436 0.987688
    outer loop
      vertex 2.45 135.925 57.5146
      vertex 4.45 135.801 57.5342
      vertex 4.45 135.925 57.5146
    endloop
  endfacet
  facet normal 1 6.19189e-008 3.90936e-007
    outer loop
      vertex 4.45 135.801 57.5342
      vertex 4.45 137.487 56.0474
      vertex 4.45 135.925 57.5146
    endloop
  endfacet
  facet normal 0 -0.0941056 0.995562
    outer loop
      vertex 2.45 4.19933 57.5342
      vertex 4.45 4.32442 57.5461
      vertex 2.45 4.32442 57.5461
    endloop
  endfacet
  facet normal 0 -0.0314163 0.999506
    outer loop
      vertex 4.45 4.32442 57.5461
      vertex 2.45 4.45 57.55
      vertex 2.45 4.32442 57.5461
    endloop
  endfacet
  facet normal 0 -0.790153 0.61291
    outer loop
      vertex 2.45 2.90897 56.8248
      vertex 4.45 2.83197 56.7256
      vertex 4.45 2.90897 56.8248
    endloop
  endfacet
  facet normal 1 -1.21492e-006 1.21492e-006
    outer loop
      vertex 4.45 2.51283 56.0474
      vertex 4.45 3.08091 57.0079
      vertex 4.45 2.99206 56.9191
    endloop
  endfacet
  facet normal 0 -0.750115 0.661308
    outer loop
      vertex 4.45 2.99206 56.9191
      vertex 2.45 2.90897 56.8248
      vertex 4.45 2.90897 56.8248
    endloop
  endfacet
  facet normal 0 -0.750115 0.661308
    outer loop
      vertex 4.45 2.99206 56.9191
      vertex 2.45 2.99206 56.9191
      vertex 2.45 2.90897 56.8248
    endloop
  endfacet
  facet normal 0 -0.960294 0.278991
    outer loop
      vertex 2.45 2.51283 56.0474
      vertex 4.45 2.54789 56.168
      vertex 2.45 2.54789 56.168
    endloop
  endfacet
  facet normal 0 -0.94088 0.33874
    outer loop
      vertex 4.45 2.54789 56.168
      vertex 2.45 2.59045 56.2862
      vertex 2.45 2.54789 56.168
    endloop
  endfacet
  facet normal 1 -5.23332e-006 3.095e-006
    outer loop
      vertex 4.45 2.69739 56.5135
      vertex 4.45 2.51283 56.0474
      vertex 4.45 2.76134 56.6217
    endloop
  endfacet
  facet normal -1 0 0
    outer loop
      vertex 2.45 2.69739 56.5135
      vertex 2.45 2.59045 56.2862
      vertex 2.45 2.64035 56.4016
    endloop
  endfacet
  facet normal 0 -0.891009 0.453986
    outer loop
      vertex 2.45 2.69739 56.5135
      vertex 2.45 2.64035 56.4016
      vertex 4.45 2.69739 56.5135
    endloop
  endfacet
  facet normal 1 -9.00577e-006 4.58862e-006
    outer loop
      vertex 4.45 2.51283 56.0474
      vertex 4.45 2.69739 56.5135
      vertex 4.45 2.64035 56.4016
    endloop
  endfacet
  facet normal -1 0 0
    outer loop
      vertex 2.45 2.83197 56.7256
      vertex 2.45 2.69739 56.5135
      vertex 2.45 2.76134 56.6217
    endloop
  endfacet
  facet normal 0 -0.860741 0.509044
    outer loop
      vertex 2.45 2.69739 56.5135
      vertex 4.45 2.69739 56.5135
      vertex 2.45 2.76134 56.6217
    endloop
  endfacet
  facet normal 1 0 0
    outer loop
      vertex 4.45 2.46577 55.8007
      vertex 4.45 2.51283 56.0474
      vertex 4.45 2.48543 55.9248
    endloop
  endfacet
  facet normal 0 -0.975918 0.21814
    outer loop
      vertex 4.45 2.51283 56.0474
      vertex 2.45 2.48543 55.9248
      vertex 4.45 2.48543 55.9248
    endloop
  endfacet
  facet normal 0 -0.995562 0.0941056
    outer loop
      vertex 4.45 2.46577 55.8007
      vertex 2.45 2.45395 55.6756
      vertex 4.45 2.45395 55.6756
    endloop
  endfacet
  facet normal 0 -0.999507 0.0314089
    outer loop
      vertex 2.45 2.45395 55.6756
      vertex 4.45 2.45 55.55
      vertex 4.45 2.45395 55.6756
    endloop
  endfacet
  facet normal 0 -0.61291 0.790153
    outer loop
      vertex 4.45 3.27443 57.168
      vertex 2.45 3.17515 57.091
      vertex 4.45 3.17515 57.091
    endloop
  endfacet
  facet normal 0 -0.661308 0.750115
    outer loop
      vertex 2.45 3.17515 57.091
      vertex 4.45 3.08091 57.0079
      vertex 4.45 3.17515 57.091
    endloop
  endfacet
  facet normal 1 -3.20046e-007 6.28132e-007
    outer loop
      vertex 4.45 3.48649 57.3026
      vertex 4.45 2.51283 56.0474
      vertex 4.45 3.59844 57.3597
    endloop
  endfacet
  facet normal 1 -2.44928e-007 5.65989e-007
    outer loop
      vertex 4.45 2.51283 56.0474
      vertex 4.45 3.71375 57.4096
      vertex 4.45 3.59844 57.3597
    endloop
  endfacet
  facet normal 0 -0.453986 0.891009
    outer loop
      vertex 4.45 3.48649 57.3026
      vertex 4.45 3.59844 57.3597
      vertex 2.45 3.48649 57.3026
    endloop
  endfacet
  facet normal -1 0 0
    outer loop
      vertex 2.45 3.71375 57.4096
      vertex 2.45 3.48649 57.3026
      vertex 2.45 3.59844 57.3597
    endloop
  endfacet
  facet normal -0 0.891009 0.453986
    outer loop
      vertex 2.45 137.36 56.4016
      vertex 4.45 137.303 56.5135
      vertex 4.45 137.36 56.4016
    endloop
  endfacet
  facet normal 1 9.00577e-006 4.58862e-006
    outer loop
      vertex 4.45 137.303 56.5135
      vertex 4.45 137.487 56.0474
      vertex 4.45 137.36 56.4016
    endloop
  endfacet
  facet normal -1 0 0
    outer loop
      vertex 2.45 137.091 56.8248
      vertex 2.45 136.919 57.0079
      vertex 2.45 137.008 56.9191
    endloop
  endfacet
  facet normal 0 0.707107 0.707107
    outer loop
      vertex 2.45 136.919 57.0079
      vertex 4.45 137.008 56.9191
      vertex 2.45 137.008 56.9191
    endloop
  endfacet
  facet normal -0 0.61291 0.790153
    outer loop
      vertex 2.45 136.825 57.091
      vertex 4.45 136.726 57.168
      vertex 4.45 136.825 57.091
    endloop
  endfacet
  facet normal 1 6.98015e-007 8.99869e-007
    outer loop
      vertex 4.45 136.726 57.168
      vertex 4.45 137.487 56.0474
      vertex 4.45 136.825 57.091
    endloop
  endfacet
  facet normal 0 -0.61291 -0.790153
    outer loop
      vertex 2.45 3.17515 2.90897
      vertex 4.45 3.27443 2.83197
      vertex 4.45 3.17515 2.90897
    endloop
  endfacet
  facet normal 1 0 0
    outer loop
      vertex 4.45 3.27443 2.83197
      vertex 4.45 3.08091 2.99206
      vertex 4.45 3.17515 2.90897
    endloop
  endfacet
  facet normal 0 -0.509044 -0.860741
    outer loop
      vertex 2.45 3.48649 2.69739
      vertex 4.45 3.48649 2.69739
      vertex 4.45 3.37835 2.76134
    endloop
  endfacet
  facet normal 1 0 0
    outer loop
      vertex 4.45 3.48649 2.69739
      vertex 4.45 3.27443 2.83197
      vertex 4.45 3.37835 2.76134
    endloop
  endfacet
  facet normal 0 -0.827082 -0.562081
    outer loop
      vertex 2.45 2.76134 3.37835
      vertex 4.45 2.83197 3.27443
      vertex 4.45 2.76134 3.37835
    endloop
  endfacet
  facet normal 1 0 0
    outer loop
      vertex 4.45 2.83197 3.27443
      vertex 4.45 2.69739 3.48649
      vertex 4.45 2.76134 3.37835
    endloop
  endfacet
  facet normal 0 -0.790153 -0.61291
    outer loop
      vertex 4.45 2.83197 3.27443
      vertex 2.45 2.90897 3.17515
      vertex 4.45 2.90897 3.17515
    endloop
  endfacet
  facet normal 0 -0.750115 -0.661308
    outer loop
      vertex 2.45 2.90897 3.17515
      vertex 4.45 2.99206 3.08091
      vertex 4.45 2.90897 3.17515
    endloop
  endfacet
  facet normal -1 0 0
    outer loop
      vertex 2.45 2.45 4.45
      vertex 2.45 2.46577 4.19933
      vertex 2.45 2.45395 4.32442
    endloop
  endfacet
  facet normal 0 -0.995562 -0.0941056
    outer loop
      vertex 2.45 2.46577 4.19933
      vertex 4.45 2.45395 4.32442
      vertex 2.45 2.45395 4.32442
    endloop
  endfacet
  facet normal 1 0 0
    outer loop
      vertex 4.45 2.51283 3.95262
      vertex 4.45 2.46577 4.19933
      vertex 4.45 2.48543 4.07524
    endloop
  endfacet
  facet normal 1 0 0
    outer loop
      vertex 4.45 2.51283 3.95262
      vertex 4.45 2.45395 4.32442
      vertex 4.45 2.46577 4.19933
    endloop
  endfacet
  facet normal -1 0 0
    outer loop
      vertex 2.45 2.48543 4.07524
      vertex 2.45 2.59045 3.71375
      vertex 2.45 2.51283 3.95262
    endloop
  endfacet
  facet normal -0 -0.960294 -0.278991
    outer loop
      vertex 4.45 2.51283 3.95262
      vertex 2.45 2.51283 3.95262
      vertex 4.45 2.54789 3.83197
    endloop
  endfacet
  facet normal -1 0 0
    outer loop
      vertex 2.45 2.51283 3.95262
      vertex 2.45 2.59045 3.71375
      vertex 2.45 2.54789 3.83197
    endloop
  endfacet
  facet normal 1 0 0
    outer loop
      vertex 4.45 2.64035 3.59844
      vertex 4.45 2.54789 3.83197
      vertex 4.45 2.59045 3.71375
    endloop
  endfacet
  facet normal 1 -2.30434e-006 1.78744e-006
    outer loop
      vertex 4.45 2.83197 56.7256
      vertex 4.45 2.51283 56.0474
      vertex 4.45 2.90897 56.8248
    endloop
  endfacet
  facet normal 1 -1.64835e-006 1.4532e-006
    outer loop
      vertex 4.45 2.51283 56.0474
      vertex 4.45 2.99206 56.9191
      vertex 4.45 2.90897 56.8248
    endloop
  endfacet
  facet normal 0 -0.891009 0.453986
    outer loop
      vertex 4.45 2.69739 56.5135
      vertex 2.45 2.64035 56.4016
      vertex 4.45 2.64035 56.4016
    endloop
  endfacet
  facet normal 0 -0.917753 0.397152
    outer loop
      vertex 2.45 2.64035 56.4016
      vertex 4.45 2.59045 56.2862
      vertex 4.45 2.64035 56.4016
    endloop
  endfacet
  facet normal 0 -0.827082 0.562081
    outer loop
      vertex 4.45 2.83197 56.7256
      vertex 2.45 2.76134 56.6217
      vertex 4.45 2.76134 56.6217
    endloop
  endfacet
  facet normal 0 -0.860741 0.509044
    outer loop
      vertex 2.45 2.76134 56.6217
      vertex 4.45 2.69739 56.5135
      vertex 4.45 2.76134 56.6217
    endloop
  endfacet
  facet normal 0 -0.509044 0.860741
    outer loop
      vertex 4.45 3.37835 57.2387
      vertex 2.45 3.48649 57.3026
      vertex 2.45 3.37835 57.2387
    endloop
  endfacet
  facet normal -1 0 0
    outer loop
      vertex 2.45 3.48649 57.3026
      vertex 2.45 3.27443 57.168
      vertex 2.45 3.37835 57.2387
    endloop
  endfacet
  facet normal 0 -0.453986 0.891009
    outer loop
      vertex 2.45 3.48649 57.3026
      vertex 4.45 3.59844 57.3597
      vertex 2.45 3.59844 57.3597
    endloop
  endfacet
  facet normal 0 -0.397152 0.917753
    outer loop
      vertex 4.45 3.59844 57.3597
      vertex 2.45 3.71375 57.4096
      vertex 2.45 3.59844 57.3597
    endloop
  endfacet
  facet normal -0 -0.562081 -0.827082
    outer loop
      vertex 4.45 3.37835 2.76134
      vertex 2.45 3.27443 2.83197
      vertex 2.45 3.37835 2.76134
    endloop
  endfacet
  facet normal -1 0 0
    outer loop
      vertex 2.45 3.27443 2.83197
      vertex 2.45 3.48649 2.69739
      vertex 2.45 3.37835 2.76134
    endloop
  endfacet
  facet normal 0 -0.987688 -0.156436
    outer loop
      vertex 4.45 2.46577 4.19933
      vertex 2.45 2.48543 4.07524
      vertex 4.45 2.48543 4.07524
    endloop
  endfacet
  facet normal 0 -0.975918 -0.21814
    outer loop
      vertex 2.45 2.48543 4.07524
      vertex 4.45 2.51283 3.95262
      vertex 4.45 2.48543 4.07524
    endloop
  endfacet
  facet normal 0 -0.94088 -0.33874
    outer loop
      vertex 2.45 2.59045 3.71375
      vertex 4.45 2.54789 3.83197
      vertex 2.45 2.54789 3.83197
    endloop
  endfacet
  facet normal -0 -0.960294 -0.278991
    outer loop
      vertex 4.45 2.54789 3.83197
      vertex 2.45 2.51283 3.95262
      vertex 2.45 2.54789 3.83197
    endloop
  endfacet
  facet normal 0 -0.94088 -0.33874
    outer loop
      vertex 4.45 2.54789 3.83197
      vertex 2.45 2.59045 3.71375
      vertex 4.45 2.59045 3.71375
    endloop
  endfacet
  facet normal 0 -0.917753 -0.397152
    outer loop
      vertex 2.45 2.59045 3.71375
      vertex 4.45 2.64035 3.59844
      vertex 4.45 2.59045 3.71375
    endloop
  endfacet
endsolid OpenSCAD_Model
